<?xml version="1.0" encoding="utf-8"?>
<!-- Generator: Adobe Illustrator 25.3.1, SVG Export Plug-In . SVG Version: 6.00 Build 0)  -->
<svg version="1.1" id="Layer_1" xmlns="http://www.w3.org/2000/svg" xmlns:xlink="http://www.w3.org/1999/xlink" x="0px" y="0px"
	 viewBox="0 0 380.66 360.66" style="enable-background:new 0 0 380.66 360.66;" xml:space="preserve">
<style type="text/css">
	.st0{fill:#D03931;}
</style>
<path class="st0" d="M273.75,165.99c-0.87-13.04-4.35-26.07-11.3-37.37L203.36,25.2c-4.35-7.82-7.82-16.51-9.56-25.2l-2.61,4.35
	c-14.77,25.2-14.77,57.36,0,82.56l47.8,82.56c14.77,25.2,14.77,57.36,0,82.56l-2.61,4.35c-1.74-8.69-5.21-17.38-9.56-25.2
	l-43.45-75.61l-27.81-48.67c-4.35-7.82-7.82-16.51-9.56-25.2l-2.61,4.35c-14.77,25.2-14.77,56.49,0,82.56l47.8,82.56
	c14.77,25.2,14.77,57.36,0,82.56l-2.61,4.35c-1.74-8.69-5.21-17.38-9.56-25.2l-59.96-103.42c-7.82-13.9-11.3-29.55-11.3-45.19
	C44.32,180.76,0,216.39,0,257.24c0,57.36,85.17,103.42,190.32,103.42s190.32-46.06,190.32-103.42
	C381.51,218.13,338.06,182.5,273.75,165.99L273.75,165.99z"/>
</svg>
